<?xml version="1.0" encoding="UTF-8" standalone="no"?>
<svg
   version="1.1"
   id="Layer_2"
   x="0px"
   y="0px"
   viewBox="0 0 800 800"
   style="enable-background:new 0 0 800 800;"
   xml:space="preserve"
   sodipodi:docname="ansible.svg"
   inkscape:version="1.3.2 (091e20ef0f, 2023-11-25)"
   xmlns:inkscape="http://www.inkscape.org/namespaces/inkscape"
   xmlns:sodipodi="http://sodipodi.sourceforge.net/DTD/sodipodi-0.dtd"
   xmlns="http://www.w3.org/2000/svg"
   xmlns:svg="http://www.w3.org/2000/svg"><defs
   id="defs1" /><sodipodi:namedview
   id="namedview1"
   pagecolor="#505050"
   bordercolor="#ffffff"
   borderopacity="1"
   inkscape:showpageshadow="0"
   inkscape:pageopacity="0"
   inkscape:pagecheckerboard="1"
   inkscape:deskcolor="#505050"
   inkscape:zoom="1.04875"
   inkscape:cx="400"
   inkscape:cy="400"
   inkscape:window-width="1920"
   inkscape:window-height="1016"
   inkscape:window-x="1920"
   inkscape:window-y="40"
   inkscape:window-maximized="1"
   inkscape:current-layer="Layer_2" />
<style
   type="text/css"
   id="style1">
	.st0{fill:#6f7580;}
</style>

<path
   d="M 354.34798,386.29052 507.41467,505.81209 406.08884,257.9706 Z M 399.52324,15.175209 c -216.53417,0 -391.9761602,173.734881 -391.9761602,388.162091 0,214.42722 175.4419902,388.1621 391.9761602,388.1621 216.53415,0 391.97616,-173.73488 391.97616,-388.1621 0,-214.42721 -175.44201,-388.162091 -391.97616,-388.162091 z M 588.8804,574.93731 c -0.35932,15.23535 -13.16388,27.23603 -28.5816,26.84786 -7.70887,0 -13.58852,-2.9112 -21.68935,-9.47761 L 336.41507,430.57334 268.50521,598.87397 h -58.7311 L 381.16568,191.14202 c 4.05044,-10.15691 13.94782,-16.82036 24.95583,-16.3675 10.64867,-0.45286 20.57875,6.11356 24.23718,16.3675 l 155.94119,371.7946 c 1.46991,3.59049 2.61318,7.56915 2.61318,11.25669 -0.0327,0.29113 -0.0327,0.29113 -0.0327,0.744 z"
   id="path1"
   style="stroke-width:32.5054;fill:#9ba1ab;fill-opacity:1" /></svg>
