<?xml version="1.0" encoding="UTF-8" standalone="no"?>
<svg
   version="1.1"
   id="Layer_2"
   x="0px"
   y="0px"
   viewBox="0 0 800 800"
   style="enable-background:new 0 0 800 800;"
   xml:space="preserve"
   sodipodi:docname="grafana-colored.svg"
   inkscape:version="1.3.2 (091e20ef0f, 2023-11-25)"
   xmlns:inkscape="http://www.inkscape.org/namespaces/inkscape"
   xmlns:sodipodi="http://sodipodi.sourceforge.net/DTD/sodipodi-0.dtd"
   xmlns="http://www.w3.org/2000/svg"
   xmlns:svg="http://www.w3.org/2000/svg"><defs
   id="defs1"><linearGradient
     id="SVGID_1_"
     gradientUnits="userSpaceOnUse"
     x1="42.562"
     y1="113.2595"
     x2="42.562"
     y2="28.782801"
     gradientTransform="matrix(8.4838124,0,0,8.4838124,40.687727,8.8271754)">
	<stop
   offset="0"
   style="stop-color:#FFF200"
   id="stop1" />
	<stop
   offset="1"
   style="stop-color:#F15A29"
   id="stop2" />
</linearGradient></defs><sodipodi:namedview
   id="namedview1"
   pagecolor="#505050"
   bordercolor="#ffffff"
   borderopacity="1"
   inkscape:showpageshadow="0"
   inkscape:pageopacity="0"
   inkscape:pagecheckerboard="1"
   inkscape:deskcolor="#505050"
   inkscape:zoom="1.04875"
   inkscape:cx="399.52324"
   inkscape:cy="400"
   inkscape:window-width="1920"
   inkscape:window-height="1016"
   inkscape:window-x="1920"
   inkscape:window-y="40"
   inkscape:window-maximized="1"
   inkscape:current-layer="Layer_2" />
<style
   type="text/css"
   id="style1">
	.st0{fill:#6f7580;}
</style>

<path
   class="st0"
   d="m 761.81178,354.96672 c -0.84839,-13.5741 -3.39353,-27.99658 -7.63544,-44.96421 -4.2419,-16.96762 -11.02895,-34.78363 -20.36114,-54.2964 -9.3322,-18.66438 -22.05792,-39.02553 -38.17716,-57.68992 -5.93867,-7.63543 -12.72572,-15.27086 -20.36115,-22.05791 11.02896,-44.11583 -13.5741,-82.292983 -13.5741,-82.292983 -42.41906,-2.545143 -68.71888,12.725723 -78.89946,20.361153 -1.69676,-0.84838 -3.39352,-1.69677 -5.09028,-1.69677 -6.78705,-2.54514 -14.42248,-5.93866 -22.05792,-7.63543 -7.63543,-2.54514 -15.27086,-4.2419 -22.90629,-6.787046 -7.63543,-1.696763 -16.11924,-3.393525 -24.60305,-5.090288 -1.69677,0 -2.54515,0 -4.24191,-0.848381 C 485.23949,33.430229 432.63986,8.8271752 432.63986,8.8271752 374.10155,46.155948 362.22421,98.755585 362.22421,98.755585 c 0,0 0,0.848381 -0.84838,3.393525 -3.39352,0.84838 -6.78705,1.69676 -10.18057,2.54514 -4.24191,1.69677 -9.3322,3.39353 -13.5741,4.24191 -4.24191,1.69676 -9.3322,3.39352 -13.5741,5.09029 -8.48382,4.2419 -17.81601,8.48381 -26.29982,12.72572 -8.48381,5.09028 -16.96763,10.18057 -24.60306,15.27086 -0.84838,-0.84838 -1.69676,-0.84838 -1.69676,-0.84838 -81.4446,-30.54173 -153.557,7.63543 -153.557,7.63543 -6.78705,86.53488 32.23848,141.67966 40.7223,151.86024 -1.69677,5.09029 -3.39353,11.02896 -5.09029,16.11924 -5.93867,19.51277 -10.18058,39.87392 -13.5741,61.08345 0,3.39353 -0.84838,5.93867 -0.84838,9.3322 -76.354315,35.63201 -98.412227,111.98632 -98.412227,111.98632 62.780217,72.1124 136.589377,77.20269 136.589377,77.20269 0,0 0,0 0,0 9.3322,16.96763 20.36115,32.23849 32.23849,47.50935 5.09029,5.93867 10.18057,11.87734 16.11924,17.81601 -22.90629,65.32535 3.39353,120.47013 3.39353,120.47013 70.41564,2.54515 116.22823,-30.54172 125.56042,-38.17715 6.78705,2.54514 14.42248,4.2419 21.20953,5.93867 21.20953,5.93867 43.26745,8.48381 65.32536,10.18057 5.09029,0 11.02895,0 16.11924,0 h 2.54514 1.69677 3.39352 3.39353 v 0 c 33.08687,47.50939 90.77679,53.44806 90.77679,53.44806 41.57068,-43.26748 43.26744,-86.53493 43.26744,-95.86712 v 0 c 0,0 0,0 0,-0.84838 0,-0.84838 0,-1.69676 0,-1.69676 0,0 0,0 0,0 0,-0.84839 0,-1.69677 0,-1.69677 8.48382,-5.93867 16.96763,-12.72572 24.60306,-19.51277 16.11924,-15.27086 31.3901,-32.23848 43.26744,-50.05449 0.84838,-1.69676 2.54515,-3.39352 3.39353,-5.09029 46.66097,2.54515 79.74783,-28.84496 79.74783,-28.84496 -7.63543,-48.35773 -35.63201,-72.1124 -41.57068,-77.20269 v 0 c 0,0 0,0 -0.84838,-0.84838 0,0 -0.84838,0 -0.84838,0 v 0 c 0,0 -0.84838,0 -0.84838,-0.84838 0,-2.54515 0.84838,-5.93867 0.84838,-8.48382 0,-5.09028 0.84838,-10.18057 0.84838,-16.11924 v -4.24191 -1.69676 -0.84838 c 0,-1.69676 0,-0.84838 0,-1.69676 v -3.39353 -4.2419 c 0,-1.69677 0,-2.54515 0,-4.24191 0,-1.69676 0,-2.54514 0,-4.24191 v -4.2419 l -0.84838,-4.24191 c -0.84838,-5.09028 -1.69676,-11.02895 -3.39352,-16.11924 -5.09029,-21.20953 -12.72572,-40.7223 -23.75468,-58.53831 -11.02896,-17.816 -24.60306,-33.93525 -39.87392,-47.50935 -15.27086,-13.5741 -32.23848,-23.75467 -50.05449,-32.23848 -17.81601,-7.63543 -36.48039,-13.5741 -55.14478,-15.27087 -9.33219,-0.84838 -18.66439,-1.69676 -27.99658,-1.69676 h -3.39353 -0.84838 c 0,0 -1.69676,0 -0.84838,0 h -1.69676 -3.39353 c -1.69676,0 -2.54514,0 -3.39352,0 -5.09029,0.84838 -9.3322,0.84838 -14.42248,1.69676 -18.66439,3.39353 -35.63201,10.18058 -51.75126,19.51277 -15.27086,9.3322 -28.84496,20.36115 -39.87392,33.93525 -11.02895,12.72572 -19.51277,27.1482 -25.45143,42.41906 -5.93867,15.27087 -9.3322,30.54173 -10.18058,45.81259 0,3.39353 0,7.63543 0,11.02896 0,0.84838 0,1.69676 0,2.54514 v 3.39353 c 0,1.69676 0,3.39352 0,5.09028 0.84838,7.63544 2.54515,15.27087 4.24191,22.05792 4.2419,14.42248 10.18057,27.1482 18.66438,37.32877 7.63544,11.02896 17.81601,19.51277 27.99659,27.1482 10.18057,6.78705 21.20953,11.87734 32.23848,15.27086 11.02896,3.39353 21.20953,4.24191 31.39011,4.24191 0.84838,0 2.54514,0 3.39352,0 0.84838,0 1.69677,0 1.69677,0 0.84838,0 1.69676,0 1.69676,0 0.84838,0 2.54514,0 3.39352,0 0,0 0.84838,0 0.84838,0 h 0.84839 c 0.84838,0 1.69676,0 1.69676,0 1.69676,0 2.54514,0 3.39352,-0.84838 0.84838,0 2.54515,-0.84838 3.39353,-0.84838 2.54514,-0.84838 4.2419,-0.84838 6.78705,-1.69677 4.2419,-1.69676 8.48381,-3.39352 12.72572,-5.09028 4.2419,-1.69677 7.63543,-4.24191 11.02895,-6.78705 0.84838,-0.84838 1.69677,-1.69677 2.54515,-1.69677 3.39352,-2.54514 4.2419,-7.63543 0.84838,-11.02895 -2.54515,-3.39353 -6.78705,-4.24191 -10.18058,-1.69676 -0.84838,0.84838 -1.69676,0.84838 -2.54514,1.69676 -2.54514,1.69676 -5.93867,2.54514 -9.33219,3.39352 -3.39353,0.84838 -6.78705,1.69677 -10.18058,2.54515 -1.69676,0 -3.39352,0.84838 -5.09029,0.84838 -0.84838,0 -1.69676,0 -2.54514,0 -0.84838,0 -1.69676,0 -2.54514,0 -0.84839,0 -1.69677,0 -2.54515,0 -0.84838,0 -2.54514,0 -3.39352,0 0,0 -0.84838,0 0,0 v 0 h -0.84838 c -0.84839,0 -0.84839,0 -1.69677,0 -0.84838,0 -1.69676,0 -2.54514,0 -7.63543,-0.84838 -16.11924,-3.39353 -23.75467,-6.78705 -7.63544,-3.39353 -15.27087,-8.48381 -22.05792,-14.42248 -6.78705,-5.93867 -12.72572,-13.5741 -16.96762,-21.20953 -4.24191,-8.48382 -7.63543,-16.96763 -9.3322,-27.1482 -0.84838,-5.09029 -0.84838,-9.3322 -0.84838,-14.42248 0,-1.69677 0,-2.54515 0,-4.24191 0,0 0,0 0,0 v -0.84838 -0.84838 c 0,-0.84838 0,-1.69677 0,-1.69677 0,-2.54514 0.84838,-5.09028 0.84838,-7.63543 3.39353,-20.36115 14.42249,-40.7223 30.54173,-55.99316 4.24191,-4.24191 8.48381,-7.63543 12.72572,-10.18057 4.2419,-3.39353 9.33219,-5.93867 14.42248,-8.48382 5.09029,-2.54514 10.18057,-4.2419 16.11924,-5.93866 5.09029,-1.69677 11.02896,-2.54515 16.96763,-2.54515 2.54514,0 5.93867,0 8.48381,0 0.84838,0 1.69676,0 1.69676,0 h 2.54515 1.69676 c 0.84838,0 0,0 0,0 h 0.84838 2.54514 c 5.93867,0.84838 12.72572,1.69676 18.66439,2.54515 11.87734,2.54514 23.75468,6.78705 34.78363,13.5741 22.05791,11.87733 40.7223,31.3901 52.59964,54.29639 5.93867,11.87734 10.18057,23.75468 11.87734,36.4804 0.84838,3.39352 0.84838,6.78705 0.84838,9.33219 v 2.54514 2.54515 c 0,0.84838 0,1.69676 0,2.54514 0,0.84838 0,1.69676 0,2.54515 v 1.69676 2.54514 c 0,1.69676 0,4.24191 0,5.93867 0,3.39353 -0.84838,6.78705 -0.84838,10.18058 0,3.39352 -0.84839,6.78705 -1.69677,10.18057 -0.84838,3.39353 -1.69676,6.78705 -2.54514,10.18058 -1.69676,6.78705 -4.24191,13.5741 -6.78705,20.36115 -5.09029,12.72571 -11.87734,25.45143 -20.36115,37.32877 -16.96763,22.90629 -39.02554,41.57068 -65.32536,53.44802 -12.72571,5.93867 -26.29981,10.18057 -40.7223,12.72572 -6.78705,0.84838 -14.42248,1.69676 -21.20953,2.54514 h -1.69676 -0.84838 -2.54514 -3.39353 -1.69676 c 0.84838,0 0,0 0,0 h -0.84838 c -3.39353,0 -7.63543,0 -11.02896,-0.84838 -15.27086,-0.84838 -30.54172,-4.24191 -44.9642,-8.48381 -14.42249,-4.24191 -28.84497,-10.18058 -41.57068,-16.96763 -26.29982,-14.42248 -50.90288,-33.93525 -69.56727,-57.68992 -9.33219,-11.87734 -17.816,-24.60306 -24.60305,-37.32878 -6.78705,-13.5741 -11.87734,-27.1482 -16.11925,-41.57068 -4.2419,-14.42248 -5.93866,-28.84496 -7.63543,-43.26744 v -2.54514 -0.84839 -0.84838 -0.84838 -2.54514 -0.84838 -0.84838 -1.69677 -3.39352 -0.84838 c 0,0 0,0 0,0 v -1.69677 c 0,-1.69676 0,-3.39352 0,-5.09028 0,-7.63543 0.84838,-14.42248 1.69677,-22.05792 0.84838,-7.63543 2.54514,-15.27086 3.39352,-22.05791 1.69676,-7.63543 3.39353,-14.42248 5.09029,-22.05791 4.2419,-14.42248 9.33219,-28.84496 15.27086,-41.57068 11.87734,-26.29982 27.99658,-50.05449 47.50935,-68.71888 5.09029,-5.09029 10.18057,-9.33219 15.27086,-13.5741 5.09029,-4.24191 10.18058,-7.63543 16.11925,-11.87734 5.09028,-3.39352 11.02895,-6.78705 16.96762,-10.18057 2.54514,-1.69677 5.93867,-2.54515 8.48381,-4.24191 1.69676,-0.84838 3.39353,-1.69676 4.24191,-1.69676 1.69676,-0.84838 3.39352,-1.69676 4.2419,-1.69676 5.93867,-2.54515 12.72572,-5.09029 18.66439,-6.78705 1.69676,-0.84839 3.39353,-0.84839 5.09029,-1.69677 1.69676,-0.84838 3.39352,-0.84838 5.09029,-1.69676 3.39352,-0.84838 6.78705,-1.69676 9.33219,-2.54514 1.69676,-0.84838 3.39353,-0.84838 5.09029,-0.84838 1.69676,0 3.39352,-0.84839 5.09029,-0.84839 1.69676,0 3.39352,-0.84838 5.09028,-0.84838 l 2.54515,-0.84838 h 2.54514 c 1.69676,0 3.39353,-0.84838 5.09029,-0.84838 1.69676,0 3.39352,-0.84838 5.93867,-0.84838 1.69676,0 4.2419,-0.84838 5.93867,-0.84838 0.84838,0 2.54514,0 3.39352,0 h 2.54514 0.84838 1.69677 c 1.69676,0 3.39352,0 5.93867,0 h 2.54514 c 0,0 0.84838,0 0,0 h 0.84838 0.84838 c 1.69676,0 3.39353,0 5.09029,0 6.78705,0 12.72572,0 18.66439,0 12.72572,0.84838 24.60305,1.69676 36.48039,4.2419 23.75467,4.24191 46.66097,11.87734 67.02212,22.05792 20.36115,10.18057 39.02554,22.05791 54.2964,35.63201 0.84838,0.84838 1.69676,1.69676 2.54514,2.54514 0.84838,0.84838 1.69676,1.69677 2.54514,2.54515 1.69677,1.69676 3.39353,3.39352 5.93867,5.09028 1.69677,1.69677 3.39353,3.39353 5.09029,5.09029 1.69676,1.69676 3.39353,3.39353 5.09029,5.09029 6.78705,6.78705 12.72572,14.42248 18.66439,22.05791 11.02895,14.42248 20.36115,28.84496 27.1482,43.26744 0.84838,0.84839 0.84838,1.69677 1.69676,2.54515 0.84838,0.84838 0.84838,1.69676 0.84838,2.54514 0.84838,1.69676 1.69676,3.39353 2.54514,5.09029 0.84838,1.69676 1.69677,3.39352 2.54515,5.09029 0.84838,1.69676 1.69676,3.39352 2.54514,5.09028 2.54514,6.78705 5.09029,12.72572 6.78705,18.66439 3.39352,9.33219 5.93867,17.81601 7.63543,25.45144 0.84838,2.54514 3.39353,5.09029 6.78705,4.2419 3.39353,0 5.93867,-2.54514 5.93867,-5.93866 5.09029,-12.72572 5.09029,-22.05792 4.24191,-32.23849 z"
   id="path2"
   style="fill:url(#SVGID_1_);stroke-width:8.48381" /></svg>
