<?xml version="1.0" encoding="UTF-8" standalone="no"?>
<svg
   version="1.1"
   id="Layer_2"
   x="0px"
   y="0px"
   viewBox="0 0 800 800"
   style="enable-background:new 0 0 800 800;"
   xml:space="preserve"
   sodipodi:docname="zabbix2-colored.svg"
   inkscape:version="1.3.2 (091e20ef0f, 2023-11-25)"
   xmlns:inkscape="http://www.inkscape.org/namespaces/inkscape"
   xmlns:sodipodi="http://sodipodi.sourceforge.net/DTD/sodipodi-0.dtd"
   xmlns="http://www.w3.org/2000/svg"
   xmlns:svg="http://www.w3.org/2000/svg"><defs
   id="defs1"><linearGradient
     id="SVGID_1_"
     gradientUnits="userSpaceOnUse"
     x1="42.562"
     y1="113.2595"
     x2="42.562"
     y2="28.782801"
     gradientTransform="matrix(8.4838124,0,0,8.4838124,40.687727,8.8271754)">
	<stop
   offset="0"
   style="stop-color:#9ba1ab;stop-opacity:1;"
   id="stop1" />
	<stop
   offset="1"
   style="stop-color:#F15A29"
   id="stop2" />
</linearGradient><clipPath
     id="clip4_1_410"><rect
       width="125"
       height="32.6087"
       fill="#ffffff"
       transform="translate(237,86)"
       id="rect96"
       x="0"
       y="0" /></clipPath><mask
     id="mask4_1_410"
     maskUnits="userSpaceOnUse"
     x="237"
     y="86"
     width="125"
     height="33"><path
       d="M 362,86.0532 H 237 v 32.5018 h 125 z"
       fill="#ffffff"
       id="path72" /></mask><mask
     id="mask5_1_410"
     maskUnits="userSpaceOnUse"
     x="237"
     y="86"
     width="125"
     height="33"><path
       d="M 362,86 H 237 v 32.609 h 125 z"
       fill="#ffffff"
       id="path73" /></mask></defs><sodipodi:namedview
   id="namedview1"
   pagecolor="#505050"
   bordercolor="#ffffff"
   borderopacity="1"
   inkscape:showpageshadow="0"
   inkscape:pageopacity="0"
   inkscape:pagecheckerboard="1"
   inkscape:deskcolor="#505050"
   inkscape:zoom="1.04875"
   inkscape:cx="399.04648"
   inkscape:cy="400"
   inkscape:window-width="1920"
   inkscape:window-height="1016"
   inkscape:window-x="1920"
   inkscape:window-y="40"
   inkscape:window-maximized="1"
   inkscape:current-layer="Layer_2" />
<style
   type="text/css"
   id="style1">
	.st0{fill:#6f7580;}
</style>

<path
   d="M 790.46544,591.96186 H 7.046439 V 795.03805 H 790.46544 Z"
   fill="#d40000"
   id="path74-7"
   inkscape:label="background"
   style="stroke-width:6.25775" /><g
   id="g1"
   inkscape:label="zabbix"><path
     d="M 39.434132,622.86615 H 152.41323 v 14.78626 L 61.296418,747.95104 h 93.391142 v 16.18272 H 37.097323 V 749.35063 L 128.21413,639.05137 H 39.434132 Z"
     fill="#ffffff"
     id="path75"
     inkscape:label="Z"
     style="stroke-width:6.24815" /><path
     d="m 219.79956,622.86615 h 21.86228 l 54.88377,141.26761 h -19.98784 l -13.03989,-36.0331 h -65.112 l -13.03365,36.0331 h -20.45645 z m 11.16544,18.91566 -26.47342,70.13614 h 53.00933 l -26.47342,-70.13614 z"
     fill="#ffffff"
     id="path76"
     inkscape:label="A"
     style="stroke-width:6.24815" /><path
     d="m 317.40195,622.86615 h 49.73529 c 14.90809,0 26.00481,3.19718 34.42732,9.25789 7.89142,5.99448 12.10267,14.78625 12.10267,25.84298 0,8.79178 -1.87444,15.71848 -6.01697,20.78073 -4.21125,5.05976 -10.22822,8.32754 -18.11339,9.72713 9.75961,1.86195 17.17617,5.99198 22.32465,12.45257 5.07975,6.46059 7.89141,14.32076 7.89141,23.98041 0,12.45256 -4.21125,22.17469 -13.03989,29.10389 -8.82239,6.9292 -20.92506,10.12201 -37.17026,10.12201 h -52.0721 V 622.86615 Z m 19.51923,15.7191 v 42.49182 h 28.81648 c 9.291,0 16.70756,-1.86195 21.38742,-5.06038 4.67987,-3.66329 6.9542,-8.79178 6.9542,-16.18459 0,-6.92733 -2.33681,-12.45507 -6.9542,-16.18522 -4.67986,-3.66329 -11.62781,-5.06163 -21.38742,-5.06163 z m 0,58.14344 v 51.68472 h 31.15328 c 10.69684,0 18.11965,-2.33056 23.26188,-6.46059 5.08599,-4.12378 7.4228,-10.58437 7.4228,-19.38177 0,-8.79115 -2.33681,-15.25174 -7.4228,-19.38177 -5.07975,-4.13003 -13.03365,-6.46059 -23.26188,-6.46059 z"
     fill="#ffffff"
     id="path77"
     inkscape:label="B1"
     style="stroke-width:6.24815" /><path
     d="m 450.83749,622.86615 h 49.7353 c 14.90809,0 26.00481,3.19718 34.42732,9.25789 7.89142,5.99448 12.10267,14.78625 12.10267,25.84298 0,8.79178 -1.87444,15.71848 -6.01697,20.78073 -4.21125,5.05976 -10.22823,8.32754 -18.11964,9.72713 9.75961,1.86195 17.18242,5.99198 22.33089,12.45257 5.14848,6.46059 7.88517,14.32076 7.88517,23.98041 0,12.45256 -4.21125,22.17469 -13.03364,29.10389 -8.82239,6.9292 -20.92507,10.12201 -37.17026,10.12201 H 450.90622 V 622.86615 Z m 19.51923,15.7191 v 42.49182 h 28.81023 c 9.29726,0 16.71381,-1.86195 21.39368,-5.06038 4.67987,-3.66329 6.95419,-8.79178 6.95419,-16.18459 0,-6.92733 -2.34305,-12.45507 -6.95419,-16.18522 -4.67987,-3.66329 -11.62781,-5.06163 -21.39368,-5.06163 z m 0,58.14344 v 51.68472 h 31.15329 c 10.22823,0 18.1134,-2.33056 23.26187,-6.46059 5.07975,-4.12378 7.42281,-10.58437 7.42281,-19.38177 0,-8.79115 -2.34306,-15.25174 -7.42281,-19.38177 -5.14847,-4.13003 -13.03364,-6.46059 -23.26187,-6.46059 z"
     fill="#ffffff"
     id="path78"
     inkscape:label="B2"
     style="stroke-width:6.24815" /><path
     d="m 640.02531,622.86615 h 21.39367 l 33.95871,50.81935 34.35859,-50.81935 h 20.45645 l -44.58681,66.00236 50.2039,75.26525 h -21.39367 l -39.50707,-59.07628 -39.50707,59.07628 h -20.92506 l 50.2039,-74.79664 z"
     fill="#ffffff"
     id="path79"
     inkscape:label="X"
     style="stroke-width:6.24815" /><path
     d="m 603.32366,622.86615 h -19.51923 v 141.26761 h 19.51923 z"
     fill="#ffffff"
     id="path80"
     inkscape:label="I"
     style="stroke-width:6.24815" /></g><path
   d="M 791.27007,7.51092 H 7.851066 V 585.31894 H 791.27007 Z"
   fill="#d40000"
   id="path74"
   style="stroke-width:10.5555"
   inkscape:label="background2" /><path
   d="M 224.20611,83.455475 H 575.10909 V 129.38025 L 292.10843,471.95798 h 290.06452 v 50.26214 H 216.94819 V 476.30497 L 499.94887,133.72532 H 224.20611 Z"
   fill="#ffffff"
   id="path3"
   inkscape:label="Z2"
   style="stroke-width:19.4062" /></svg>
