<?xml version="1.0" encoding="UTF-8" standalone="no"?>
<svg
   version="1.1"
   id="Layer_2"
   x="0px"
   y="0px"
   viewBox="0 0 800 800"
   style="enable-background:new 0 0 800 800;"
   xml:space="preserve"
   sodipodi:docname="zabbix2.svg"
   inkscape:version="1.3.2 (091e20ef0f, 2023-11-25)"
   xmlns:inkscape="http://www.inkscape.org/namespaces/inkscape"
   xmlns:sodipodi="http://sodipodi.sourceforge.net/DTD/sodipodi-0.dtd"
   xmlns="http://www.w3.org/2000/svg"
   xmlns:svg="http://www.w3.org/2000/svg"><defs
   id="defs1"><linearGradient
     id="SVGID_1_"
     gradientUnits="userSpaceOnUse"
     x1="42.562"
     y1="113.2595"
     x2="42.562"
     y2="28.782801"
     gradientTransform="matrix(8.4838124,0,0,8.4838124,40.687727,8.8271754)">
	<stop
   offset="0"
   style="stop-color:#9ba1ab;stop-opacity:1;"
   id="stop1" />
	<stop
   offset="1"
   style="stop-color:#F15A29"
   id="stop2" />
</linearGradient><clipPath
     id="clip4_1_410"><rect
       width="125"
       height="32.6087"
       fill="#ffffff"
       transform="translate(237,86)"
       id="rect96"
       x="0"
       y="0" /></clipPath><mask
     id="mask4_1_410"
     maskUnits="userSpaceOnUse"
     x="237"
     y="86"
     width="125"
     height="33"><path
       d="M 362,86.0532 H 237 v 32.5018 h 125 z"
       fill="#ffffff"
       id="path72" /></mask><mask
     id="mask5_1_410"
     maskUnits="userSpaceOnUse"
     x="237"
     y="86"
     width="125"
     height="33"><path
       d="M 362,86 H 237 v 32.609 h 125 z"
       fill="#ffffff"
       id="path73" /></mask></defs><sodipodi:namedview
   id="namedview1"
   pagecolor="#505050"
   bordercolor="#ffffff"
   borderopacity="1"
   inkscape:showpageshadow="0"
   inkscape:pageopacity="0"
   inkscape:pagecheckerboard="1"
   inkscape:deskcolor="#505050"
   inkscape:zoom="1.04875"
   inkscape:cx="399.04648"
   inkscape:cy="400"
   inkscape:window-width="1920"
   inkscape:window-height="1016"
   inkscape:window-x="1920"
   inkscape:window-y="40"
   inkscape:window-maximized="1"
   inkscape:current-layer="Layer_2" />
<style
   type="text/css"
   id="style1">
	.st0{fill:#6f7580;}
</style>

<path
   id="path74-7"
   style="stroke-width:6.25775;fill:#6f7580;fill-opacity:1"
   inkscape:label="down"
   d="M 7.046875 591.96094 L 7.046875 795.03711 L 790.46484 795.03711 L 790.46484 591.96094 L 7.046875 591.96094 z M 39.433594 622.86523 L 152.41406 622.86523 L 152.41406 637.65234 L 61.296875 747.95117 L 154.6875 747.95117 L 154.6875 764.13281 L 37.097656 764.13281 L 37.097656 749.35156 L 128.21484 639.05078 L 39.433594 639.05078 L 39.433594 622.86523 z M 219.79883 622.86523 L 241.66211 622.86523 L 296.54492 764.13281 L 276.55859 764.13281 L 263.51758 728.10156 L 198.40625 728.10156 L 185.37305 764.13281 L 164.91602 764.13281 L 219.79883 622.86523 z M 317.4707 622.86523 L 367.13672 622.86523 C 382.04479 622.86523 393.14195 626.0643 401.56445 632.125 C 409.45587 638.11947 413.66797 646.91008 413.66797 657.9668 C 413.66797 666.75857 411.79292 673.6858 407.65039 678.74805 C 403.43914 683.8078 397.42227 687.07502 389.53711 688.47461 C 399.29671 690.33656 406.71285 694.46715 411.86133 700.92773 C 416.94107 707.38832 419.75391 715.24856 419.75391 724.9082 C 419.75391 737.36075 415.54152 747.08253 406.71289 754.01172 C 397.89051 760.94091 385.78815 764.13281 369.54297 764.13281 L 317.4707 764.13281 L 317.4707 622.86523 z M 450.90625 622.86523 L 500.57227 622.86523 C 515.48034 622.86523 526.5775 626.0643 535 632.125 C 542.89141 638.11947 547.10352 646.91008 547.10352 657.9668 C 547.10352 666.75857 545.22846 673.6858 541.08594 678.74805 C 536.87469 683.8078 530.8582 687.07502 522.9668 688.47461 C 532.7264 690.33656 540.14841 694.46715 545.29688 700.92773 C 550.44535 707.38832 553.18164 715.24856 553.18164 724.9082 C 553.18164 737.36075 548.97082 747.08253 540.14844 754.01172 C 531.32606 760.94091 519.22369 764.13281 502.97852 764.13281 L 450.90625 764.13281 L 450.90625 622.86523 z M 583.80469 622.86523 L 603.32422 622.86523 L 603.32422 764.13281 L 583.80469 764.13281 L 583.80469 622.86523 z M 640.02539 622.86523 L 661.41992 622.86523 L 695.37695 673.68555 L 729.73633 622.86523 L 750.19336 622.86523 L 705.60547 688.86914 L 755.81055 764.13281 L 734.41602 764.13281 L 694.9082 705.05664 L 655.40234 764.13281 L 634.47656 764.13281 L 684.68164 689.33789 L 640.02539 622.86523 z M 336.92188 638.58594 L 336.92188 681.07617 L 365.73828 681.07617 C 375.02927 681.07617 382.44514 679.216 387.125 676.01758 C 391.80487 672.35429 394.08008 667.22483 394.08008 659.83203 C 394.08008 652.90471 391.74239 647.37663 387.125 643.64648 C 382.44514 639.9832 375.49788 638.58594 365.73828 638.58594 L 336.92188 638.58594 z M 470.35742 638.58594 L 470.35742 681.07617 L 499.16602 681.07617 C 508.46327 681.07617 515.88068 679.216 520.56055 676.01758 C 525.24041 672.35429 527.51562 667.22483 527.51562 659.83203 C 527.51562 652.90471 525.17168 647.37663 520.56055 643.64648 C 515.88068 639.9832 508.93188 638.58594 499.16602 638.58594 L 470.35742 638.58594 z M 230.96484 641.78125 L 204.49219 711.91797 L 257.5 711.91797 L 231.02734 641.78125 L 230.96484 641.78125 z M 336.92188 696.72852 L 336.92188 748.41406 L 368.07422 748.41406 C 378.77105 748.41406 386.19371 746.08315 391.33594 741.95312 C 396.42192 737.82935 398.75977 731.3677 398.75977 722.57031 C 398.75977 713.77917 396.42192 707.31948 391.33594 703.18945 C 386.25619 699.05943 378.30244 696.72852 368.07422 696.72852 L 336.92188 696.72852 z M 470.35742 696.72852 L 470.35742 748.41406 L 501.50977 748.41406 C 511.73799 748.41406 519.62302 746.08315 524.77148 741.95312 C 529.85123 737.82935 532.19531 731.3677 532.19531 722.57031 C 532.19531 713.77917 529.85123 707.31948 524.77148 703.18945 C 519.62302 699.05943 511.73799 696.72852 501.50977 696.72852 L 470.35742 696.72852 z " /><path
   id="path74"
   style="stroke-width:10.5555;fill:#6f7580;fill-opacity:1"
   inkscape:label="up"
   d="M 7.8515625 7.5117188 L 7.8515625 585.31836 L 791.26953 585.31836 L 791.26953 7.5117188 L 7.8515625 7.5117188 z M 224.20703 83.455078 L 575.10938 83.455078 L 575.10938 129.38086 L 292.10938 471.95703 L 582.17383 471.95703 L 582.17383 522.2207 L 216.94727 522.2207 L 216.94727 476.30469 L 499.94922 133.72461 L 224.20703 133.72461 L 224.20703 83.455078 z " /></svg>
